<svg width="282" height="119" viewBox="0 0 282 119" fill="none" xmlns="http://www.w3.org/2000/svg">
<path d="M194.485 94.3398V42.077H209.568V94.3398H194.485ZM202.026 34.7912C199.255 34.7912 196.999 33.9816 195.258 32.3626C193.518 30.7435 192.648 28.7359 192.648 26.3397C192.648 23.9435 193.518 21.9359 195.258 20.3169C196.999 18.6978 199.255 17.8883 202.026 17.8883C204.798 17.8883 207.054 18.6654 208.794 20.2197C210.535 21.7093 211.405 23.6521 211.405 26.0483C211.405 28.574 210.535 30.6788 208.794 32.3626C207.119 33.9816 204.863 34.7912 202.026 34.7912ZM243.774 95.117C238.875 95.117 234.46 94.016 230.528 91.8141C226.596 89.6122 223.47 86.5037 221.149 82.4884C218.893 78.4732 217.765 73.7132 217.765 68.2084C217.765 62.7684 218.893 58.0408 221.149 54.0256C223.47 50.0103 226.596 46.9018 230.528 44.6999C234.46 42.4332 238.875 41.2999 243.774 41.2999C248.35 41.2999 252.25 42.2713 255.473 44.2141C258.76 46.157 261.274 49.1037 263.014 53.0541C264.755 57.0046 265.625 62.056 265.625 68.2084C265.625 74.296 264.722 79.3475 262.918 83.3627C261.113 87.3132 258.567 90.2598 255.279 92.2027C251.992 94.1456 248.157 95.117 243.774 95.117ZM246.384 82.6827C248.834 82.6827 251.057 82.0999 253.056 80.9341C255.054 79.7684 256.633 78.117 257.793 75.9798C259.018 73.7779 259.63 71.1875 259.63 68.2084C259.63 65.1646 259.018 62.5741 257.793 60.437C256.633 58.2999 255.054 56.6484 253.056 55.4827C251.057 54.317 248.834 53.7341 246.384 53.7341C243.87 53.7341 241.614 54.317 239.616 55.4827C237.618 56.6484 236.007 58.2999 234.782 60.437C233.622 62.5741 233.042 65.1646 233.042 68.2084C233.042 71.1875 233.622 73.7779 234.782 75.9798C236.007 78.117 237.618 79.7684 239.616 80.9341C241.614 82.0999 243.87 82.6827 246.384 82.6827ZM259.34 113.186V83.7513L260.307 68.3056L260.017 52.7627V42.077H274.423V113.186H259.34Z" fill="#1C1F26"/>
<path d="M21.851 94.3095L0 42.0466H15.5664L33.7433 87.0238H26.0084L44.8622 42.0466H59.3651L37.4174 94.3095H21.851ZM86.9213 95.0866C81.378 95.0866 76.447 93.9209 72.1284 91.5895C67.8742 89.2581 64.4902 86.0847 61.9764 82.0695C59.527 77.9895 58.3023 73.359 58.3023 68.1781C58.3023 62.9324 59.527 58.3019 61.9764 54.2866C64.4902 50.2066 67.8742 47.0333 72.1284 44.7666C76.447 42.4352 81.378 41.2695 86.9213 41.2695C92.4002 41.2695 97.2989 42.4352 101.618 44.7666C105.936 47.0333 109.32 50.1743 111.77 54.1895C114.219 58.2047 115.444 62.8676 115.444 68.1781C115.444 73.359 114.219 77.9895 111.77 82.0695C109.32 86.0847 105.936 89.2581 101.618 91.5895C97.2989 93.9209 92.4002 95.0866 86.9213 95.0866ZM86.9213 82.6524C89.4351 82.6524 91.6911 82.0695 93.6893 80.9038C95.6875 79.7381 97.2667 78.0866 98.4269 75.9495C99.5871 73.7476 100.167 71.1571 100.167 68.1781C100.167 65.1343 99.5871 62.5438 98.4269 60.4066C97.2667 58.2695 95.6875 56.6181 93.6893 55.4524C91.6911 54.2866 89.4351 53.7038 86.9213 53.7038C84.4075 53.7038 82.1515 54.2866 80.1533 55.4524C78.1551 56.6181 76.5437 58.2695 75.319 60.4066C74.1588 62.5438 73.5787 65.1343 73.5787 68.1781C73.5787 71.1571 74.1588 73.7476 75.319 75.9495C76.5437 78.0866 78.1551 79.7381 80.1533 80.9038C82.1515 82.0695 84.4075 82.6524 86.9213 82.6524ZM123.591 94.3095V22.2295H138.674V94.3095H123.591Z" fill="#1C1F26"/>
<path d="M171.459 43.0638H184.415V54.721H171.459V75.9953C171.459 78.1972 172.04 79.9134 173.2 81.1438C174.36 82.3095 175.939 82.8924 177.937 82.8924C180.322 82.8924 182.353 82.2452 184.029 80.95L188.089 91.6353C186.542 92.7362 184.673 93.5781 182.482 94.161C180.355 94.6791 178.13 94.9381 175.81 94.9381C169.687 94.9381 164.917 93.3838 161.501 90.2757C158.085 87.1023 156.376 82.4067 156.376 76.1895V57.5199L156.379 57.5207L156.799 56.58L161.94 46.8038L163.7 35.22H171.459V43.0638Z" fill="#1C1F26"/>
<path d="M171.457 35.1914V35.2768L171.042 35.1914H171.457Z" fill="#1C1F26" stroke="#1C1F26" stroke-width="0.01"/>
<path d="M171.455 35.1904L156.377 57.5207L159.422 41.9022H151.034L166.847 20.0897L163.836 35.1904H171.455Z" fill="#00B050" stroke="#00B050" stroke-width="0.01"/>
</svg>
