<svg width="616" height="1052" viewBox="0 0 616 1052" fill="none" xmlns="http://www.w3.org/2000/svg">
<g clip-path="url(#clip0_61_72)">
<mask id="mask0_61_72" style="mask-type:luminance" maskUnits="userSpaceOnUse" x="0" y="0" width="616" height="1052">
<path d="M616 0H0V1052H616V0Z" fill="white"/>
</mask>
<g mask="url(#mask0_61_72)">
<path d="M346.938 36.2665C345.407 32.0523 340.751 29.8781 336.54 31.4103C332.328 32.9425 330.155 37.6009 331.686 41.8151L352.666 99.5532C354.198 103.767 358.853 105.942 363.065 104.409C367.277 102.877 369.45 98.2188 367.918 94.0046L346.938 36.2665Z" fill="#2C9C5C"/>
<path d="M473.514 35.6006C474.308 31.1875 471.377 26.9654 466.967 26.1702C462.556 25.3751 458.337 28.308 457.542 32.721L446.654 93.1832C445.859 97.5963 448.791 101.818 453.201 102.614C457.611 103.409 461.831 100.476 462.626 96.0628L473.514 35.6006Z" fill="#2C9C5C"/>
<path d="M590.69 87.5006C593.799 84.2715 593.704 79.1315 590.477 76.0202C587.249 72.9089 582.113 73.0044 579.003 76.2335L536.401 120.475C533.291 123.704 533.387 128.844 536.614 131.955C539.841 135.066 544.978 134.971 548.088 131.742L590.69 87.5006Z" fill="#2C9C5C"/>
<path d="M217.874 733.501C208.449 733.501 203.736 728.357 203.736 718.069V667.915C203.736 638.766 211.02 613.476 225.585 592.042C240.151 570.608 257.716 551.318 278.28 534.172C299.701 517.027 321.12 500.737 342.542 485.305C363.963 469.015 381.956 452.297 396.521 435.151C411.087 418.005 418.37 398.716 418.37 377.282C418.37 354.992 410.231 338.702 393.951 328.414C377.671 317.268 353.251 311.696 320.693 311.696C280.423 311.696 253.003 320.698 238.438 338.702C224.728 355.848 218.302 380.282 219.159 412.004C219.159 424.863 214.018 431.293 203.736 431.293H67.5014C60.6469 431.293 55.9343 429.579 53.3639 426.149C51.6503 421.863 50.365 416.29 49.5082 409.432C46.9377 327.128 67.9298 265.829 112.485 225.535C157.04 184.383 227.728 163.808 324.548 163.808C417.943 163.808 486.916 180.097 531.471 212.675C576.027 244.397 598.303 291.549 598.303 354.134C598.303 393.572 591.02 427.863 576.454 457.013C561.889 486.163 543.896 511.025 522.474 531.601C501.911 552.176 480.489 570.608 458.213 586.898C436.792 603.188 418.798 619.048 404.233 634.48C389.668 649.912 382.384 667.057 382.384 685.919L381.099 718.069C381.099 728.357 376.385 733.501 366.961 733.501H217.874ZM298.844 1036.99C263.715 1036.99 236.725 1028.85 217.874 1012.56C199.881 996.271 190.884 972.267 190.884 940.545V916.111C190.884 883.534 199.881 859.1 217.874 842.81C236.725 826.52 263.715 818.376 298.844 818.376C334.83 818.376 361.82 826.52 379.813 842.81C397.807 859.1 406.803 883.534 406.803 916.111V940.545C406.803 972.267 397.807 996.271 379.813 1012.56C361.82 1028.85 334.83 1036.99 298.844 1036.99Z" fill="#2C9C5C"/>
<path d="M189.355 733.501C179.93 733.501 175.218 728.357 175.218 718.069V667.915C175.218 638.766 182.501 613.476 197.067 592.042C211.632 570.608 229.198 551.318 249.761 534.172C271.183 517.027 292.602 500.737 314.023 485.305C335.444 469.015 353.438 452.297 368.003 435.151C382.568 418.005 389.852 398.716 389.852 377.282C389.852 354.992 381.713 338.702 365.432 328.414C349.152 317.268 324.733 311.696 292.174 311.696C251.904 311.696 224.484 320.698 209.919 338.702C196.209 355.848 189.784 380.282 190.641 412.004C190.641 424.863 185.5 431.293 175.218 431.293H38.9829C32.1284 431.293 27.4158 429.579 24.8453 426.149C23.1317 421.863 21.8465 416.29 20.9896 409.432C18.4191 327.128 39.4112 265.829 83.9661 225.535C128.521 184.383 199.209 163.808 296.03 163.808C389.424 163.808 458.397 180.097 502.953 212.675C547.508 244.397 569.785 291.549 569.785 354.134C569.785 393.572 562.501 427.863 547.936 457.013C533.37 486.163 515.377 511.025 493.956 531.601C473.392 552.176 451.971 570.608 429.694 586.898C408.273 603.188 390.28 619.048 375.714 634.48C361.149 649.912 353.865 667.057 353.865 685.919L352.58 718.069C352.58 728.357 347.867 733.501 338.443 733.501H189.355ZM270.325 1036.99C235.196 1036.99 208.206 1028.85 189.355 1012.56C171.362 996.271 162.365 972.267 162.365 940.545V916.111C162.365 883.534 171.362 859.1 189.355 842.81C208.206 826.52 235.196 818.376 270.325 818.376C306.312 818.376 333.302 826.52 351.295 842.81C369.288 859.1 378.285 883.534 378.285 916.111V940.545C378.285 972.267 369.288 996.271 351.295 1012.56C333.302 1028.85 306.312 1036.99 270.325 1036.99Z" fill="#64C987"/>
<path d="M309.901 913.651L249.537 1004.44L261.728 940.941H228.148L291.453 852.253L279.398 913.651H309.901Z" fill="white" stroke="#00B050" stroke-width="0.01"/>
</g>
</g>
<defs>
<clipPath id="clip0_61_72">
<rect width="616" height="1052" fill="white"/>
</clipPath>
</defs>
</svg>
