<svg width="36" height="38" viewBox="0 0 36 38" fill="none" xmlns="http://www.w3.org/2000/svg">
<rect width="36" height="36" rx="18" fill="white"/>
<g clip-path="url(#clip0_42_3)">
<path d="M15.6447 29.8246L9.27148 14.1786H13.8117L19.1133 27.6434H16.8573L22.3563 14.1786H26.5863L20.1849 29.8246H15.6447Z" fill="#1C1F26"/>
<path d="M15.6541 29.8294L18.0366 24.8195L21.2038 16.9996H16.3031L24.2823 4.53479L22.1568 13.7966H26.7379L20.1856 29.8249L15.6541 29.8294Z" fill="#00B050"/>
<path d="M15.6447 29.8245L9.27148 14.1786H13.8117L19.1133 27.6434H16.8573L22.3563 14.1786H26.5863L20.1849 29.8245H15.6447Z" fill="#1C1F26"/>
<path d="M15.6541 29.8294L18.0366 24.8195L21.2038 16.9996H16.3031L24.2823 4.53479L22.1568 13.7966H26.7379L20.1856 29.8249L15.6541 29.8294Z" fill="#00B050"/>
</g>
<defs>
<clipPath id="clip0_42_3">
<rect width="17.625" height="35.625" fill="white" transform="translate(9.1875 1.5)"/>
</clipPath>
</defs>
</svg>
